<svg width="30" height="25" viewBox="0 0 30 25" fill="none" xmlns="http://www.w3.org/2000/svg"> <path fill-rule="evenodd" clip-rule="evenodd" d="M27 11H21C20.448 11 20 10.553 20 10V1C20 0.447 20.448 0 21 0H27C27.552 0 28 0.447 28 1V10C28 10.553 27.552 11 27 11ZM11 24H17C17.552 24 18 23.553 18 23V10C18 9.447 17.552 9 17 9H11C10.448 9 10 9.447 10 10V23C10 23.553 10.448 24 11 24ZM1 24H7C7.552 24 8 23.553 8 23V18C8 17.447 7.552 17 7 17H1C0.448 17 0 17.447 0 18V23C0 23.553 0.448 24 1 24ZM21 24H27C27.552 24 28 23.553 28 23V14C28 13.447 27.552 13 27 13H21C20.448 13 20 13.447 20 14V23C20 23.553 20.448 24 21 24Z" fill="#1D90F5"/> <path opacity="0.25" fill-rule="evenodd" clip-rule="evenodd" d="M1 15H7C7.552 15 8 14.553 8 14V1C8 0.447 7.552 0 7 0H1C0.448 0 0 0.447 0 1V14C0 14.553 0.448 15 1 15ZM11 7H17C17.552 7 18 6.553 18 6V1C18 0.447 17.552 0 17 0H11C10.448 0 10 0.447 10 1V6C10 6.553 10.448 7 11 7Z" fill="#1D90F5"/> </svg>